<svg xmlns="http://www.w3.org/2000/svg" xmlns:xlink="http://www.w3.org/1999/xlink" viewBox="0 0 1260.46407 861.99939">
  <defs>
    <style>
      .cls-1, .cls-10, .cls-13, .cls-14, .cls-17, .cls-20, .cls-23, .cls-26, .cls-8 {
        fill: none;
      }

      .cls-2 {
        clip-path: url(#clip-path);
      }

      .cls-3 {
        fill: #ffc28a;
      }

      .cls-4 {
        fill: #fff;
      }

      .cls-5 {
        fill: #ff1f1f;
      }

      .cls-6 {
        fill: #ffae71;
      }

      .cls-7 {
        clip-path: url(#clip-path-3);
      }

      .cls-8 {
        stroke: #7f2700;
      }

      .cls-10, .cls-13, .cls-17, .cls-20, .cls-23, .cls-26, .cls-8 {
        stroke-miterlimit: 10;
      }

      .cls-10, .cls-13, .cls-14, .cls-17, .cls-20, .cls-23, .cls-8 {
        stroke-width: 8px;
      }

      .cls-9 {
        fill: #009245;
      }

      .cls-10, .cls-14 {
        stroke: #006837;
      }

      .cls-11 {
        clip-path: url(#clip-path-5);
      }

      .cls-12 {
        fill: #597718;
      }

      .cls-13 {
        stroke: #776e00;
      }

      .cls-14 {
        stroke-linecap: round;
        stroke-linejoin: round;
      }

      .cls-15 {
        clip-path: url(#clip-path-7);
      }

      .cls-16 {
        fill: #9e005d;
      }

      .cls-17 {
        stroke: #d4145a;
      }

      .cls-18 {
        clip-path: url(#clip-path-9);
      }

      .cls-19 {
        fill: #ffecce;
      }

      .cls-20 {
        stroke: #ffc28a;
      }

      .cls-21 {
        clip-path: url(#clip-path-11);
      }

      .cls-22 {
        fill: #eca442;
      }

      .cls-23 {
        stroke: #a67c52;
      }

      .cls-24 {
        fill: #006837;
      }

      .cls-25 {
        fill: #22b573;
      }

      .cls-26 {
        stroke: #000;
        stroke-width: 3px;
      }

      .cls-27 {
        clip-path: url(#clip-path-13);
      }
    </style>
    <clipPath id="clip-path" transform="translate(0 -0.00021)">
      <rect class="cls-1" x="418" y="159" width="448.487" height="656.47601"/>
    </clipPath>
    <clipPath id="clip-path-3" transform="translate(0 -0.00021)">
      <rect class="cls-1" y="283" width="266" height="292.34698"/>
    </clipPath>
    <clipPath id="clip-path-5" transform="translate(0 -0.00021)">
      <rect class="cls-1" x="156" y="647" width="225.89" height="182.27499"/>
    </clipPath>
    <clipPath id="clip-path-7" transform="translate(0 -0.00021)">
      <rect class="cls-1" x="886" y="36" width="171.186" height="246.571"/>
    </clipPath>
    <clipPath id="clip-path-9" transform="translate(0 -0.00021)">
      <rect class="cls-1" x="1043" y="334" width="217.464" height="190"/>
    </clipPath>
    <clipPath id="clip-path-11" transform="translate(0 -0.00021)">
      <rect class="cls-1" x="920" y="593" width="174.67599" height="269"/>
    </clipPath>
    <clipPath id="clip-path-13" transform="translate(0 -0.00021)">
      <rect class="cls-1" x="274" width="174.67599" height="269"/>
    </clipPath>
  </defs>
  <g id="Layer_2" data-name="Layer 2">
    <g id="Layer_1-2" data-name="Layer 1">
      <g id="Pablo">
        <g class="cls-2">
          <g class="cls-2">
            <path class="cls-3" d="M652.69431,359.95963a58.00958,58.00958,0,0,0-1.65,16.07q-3.93.465-8.2.93-9.405,1.05-20.47,2.08c-3.47.31-7.06.64-10.77.96a74.974,74.974,0,0,1-10.36-3.98c-7.96-3.78-13.02-8.3-12.64-12.02.47-4.63,9.45-9.09,23.2-10.33a89.68909,89.68909,0,0,1,9.46-.31q3.42-.075,6.84-.1c6.52-.08,13.04-.05,19.561.05q3.4635.42,6.67.83a58.64906,58.64906,0,0,0-1.641,5.82" transform="translate(0 -0.00021)"/>
            <path class="cls-3" d="M510.0546,489.32c-14.12-19.04-22.28-41.471-22.28-65.49a108.13622,108.13622,0,0,1,17.509-58.59q15.6615-4.62,31.321-9.24,46.00048-2.50049,92-5-13.99948,63-28,126-45.276,6.159-90.55,12.32" transform="translate(0 -0.00021)"/>
            <path class="cls-3" d="M717.415,368.87952c.979-.59,1.97-1.18,2.949-1.78.051,1.06-.13,1.81-.609,2.131-.45.299-1.191.25-2.34-.351" transform="translate(0 -0.00021)"/>
            <path class="cls-3" d="M786.23431,423.95963c0,27.08-10.37,52.15-27.96,72.6q-33.33-11.775-66.67-23.56-2.055-1.47-4.11-2.94-11.94-8.535-23.89-17.06-5.505-22.5-11-45c1.12-.68,2.25-1.36,3.37-2.03q4.275-2.595,8.56-5.17c16.36,11.02,43.68,8.8,55.21-5.92,7.72-9.86,6.23-22.62,4.69-30.23q4.02-2.43,8.05-4.86,17.355,2.355,34.73,5.57v-2.28c12.11,18,19.02,38.77,19.02,60.88" transform="translate(0 -0.00021)"/>
            <path class="cls-4" d="M602.3642,798.25941c-4.18-.13-8.45-.31-12.77-.529.05-.021.11-.04.161-.061q6.3885.36,12.609.59" transform="translate(0 -0.00021)"/>
            <path class="cls-4" d="M848.41528,615.98022c-4.631-10.221-17.071-36.75-45.681-57.83a135.63923,135.63923,0,0,0-47.87-22.441c-1.56.71-4.42,1.55-6.93-.429h-1.81c-6.92,7.41-16.09,13.95-26.93,19.389-.04.021-.08.04-.12.061-1.04.519-2.1,1.029-3.17,1.529-.51.24-1.02.481-1.54.71-.359.17-.72.33-1.08.481-.64.29-1.279.569-1.93.84-1.389.589-2.8,1.169-4.23,1.719-.659.26-1.31.51-1.97.75-.71.271-1.42.521-2.13.781-.05.019-.09.03-.14.049-4.2,1.491-8.57,2.84-13.07,4.04-.2.061-.39.111-.59.161-1.33.349-2.67.69-4.02,1.009l-.48.12q-4.485,1.05149-9.12,1.911c-.31.059-.62.12-.93.169-1.209.22-2.43.43-3.65.621-.39.07-.78.129-1.17.189-1.29.2-2.599.391-3.91.57-.24.031-.479.071-.72.101-1.55.199-3.11.39-4.68.56-.329.04-.65.07-.98.099-1.229.13-2.46.24-3.69.351l-1.5.12c-1.119.09-2.26.17-3.39.239-.47.03-.95.061-1.42.091-1.58.09-3.16.17-4.75.22a218.36644,218.36644,0,0,1-22.63-.411q-4.4535-.32852-8.849-.82c-2.92-.33-5.821-.72-8.681-1.17a188.62463,188.62463,0,0,1-28.63-6.719c-1.28-.42-2.55-.84-3.809-1.281a130.40772,130.40772,0,0,1-30.13-14.769c-.961-.641-1.891-1.3-2.811-1.971-1.09-.8-2.14-1.619-3.17-2.439a79.14717,79.14717,0,0,1-6.8-6.09c-.2-.21-.39-.42-.589-.63-.261-.261-.511-.53-.761-.801h-1.92a283.46056,283.46056,0,0,0-40.46,28.471c-21.73,18.309-43.8,36.91-56.13,65.889-12.31,28.941-14.96,68.361-1.3,98.17,10.84,23.651,31.1,39.401,55.67,49.92.13-.29.26-.569.39-.83l2.17.431,40.37,7.989,49.591,9.82,13.579,2.691c-.05.019-.1.04-.159.059q6.38852.36153,12.609.59c14.891.571,28.87.66,41.04.74,5.49.041,11.37.071,17.53.071-.07-.03-.13-.051-.19-.08-2.98-.01-6.06-.04-9.239-.061,2.949.011,5.979.011,9.069,0-.06-.019-.109-.04-.159-.059l109.59-10.201c38.259-9.269,71.71-26.78,86.25-59.729,20.979-47.57-5.771-108.421-7.84-112.96m-223.241,57.59a11.7455,11.7455,0,1,1,11.741,11.739,11.74725,11.74725,0,0,1-11.741-11.739m16.96,54.809a11.745,11.745,0,1,1,11.75-11.74,11.74425,11.74425,0,0,1-11.75,11.74m1.31-91.36a11.7445,11.7445,0,1,1,11.75-11.75,11.74915,11.74915,0,0,1-11.75,11.75" transform="translate(0 -0.00021)"/>
            <path class="cls-4" d="M784.9151,262.49951h-.011c12.75-16.44995,14.41-36.88995,5.231-49.6-6.92-9.57-18.561-12.78-19.58-13.05a36.63126,36.63126,0,0,0-21.951,1.15,32.80211,32.80211,0,0,0-5.46-14.21c-8.57-12.28-24.559-15.8-36.549-14.35-22.04,2.67-31.93,22.06-32.63,23.49006-1.061-3.36005-6.761-20.13-24.16-28.71-22.231-10.97-43.67,1.25-45.981,2.61-2.62,1.54-17.04,10.34-22.529,28.71-22.45-9.4-47.101-5.02-61.341,10.44-1.48,1.61-17,19.09-11.75,41.77-2.34-.38995-11.04-1.54-18.27,3.91a25.66043,25.66043,0,0,0-7.83,11.75c-4.179,12.66,4.8,32.54,22.531,51.52v47.43c.219-.05.429-.08.649-.12q15.45151-2.85,30.9-5.02-.36,1.32-.719,2.79c-2.471,9.98-4.41,24.46,3.59,35.86,7.62,10.85,22.49,16.41,37.7,16.611.739-2.371,1.63-4.841,2.67-7.381-11.891-.03-23.88-4.26-30.981-12.85-10.309-12.48-6.479-29.49-5.26-34.92.34-1.52.77-3.12,1.29-4.76,4.77-15.11,16.9-34.089,34.21-34.04,16.031.05,27.02,16.4,32.481,30.42.229.58.439,1.15.64,1.72a67.3357,67.3357,0,0,1,2.379,7.95c.19.85.42,1.85.661,2.97a59.21233,59.21233,0,0,1,8.099-4.56c-.17-.799-.33-1.53-.479-2.16-.33-1.42-.731-2.94-1.2-4.51q3.4185-.075,6.839-.1c6.52-.08,13.04-.05,19.561.05-.481,1.41-.761,2.341-.851,2.64-.08.27-.16.56-.25.85-1.429,4.88-3.479,12.25-3.719,20.16-.231,7.22,1.059,14.9,5.719,21.54a32.24078,32.24078,0,0,0,7.41,7.47c.68.511,1.39.99,2.121,1.46,20.019,12.75,54.889,9.74,69.139-9.6,9.601-13.02,7.06-29.63,5.25-38.04q17.35647,2.355,34.731,5.57v-39.04q1.07848-3.15,2.159-6.3c.051-.14.1-.28.15-.42l-.16.591c21.58-17.721,30.91-38.301,24.68-49.861-1.26-2.34-3.739-5.4-9.129-7.83m-180.631,38.25006c-.269-.24-.55-.49-.84-.73-5.82-4.93-14.34-9.74-25.149-9.26-11.901.53-20.66,7.21-26.301,13.44-.229.25-.449.5-.67.741a51.9685,51.9685,0,0,0-6.939,10.059c.649-3.16,1.299-6.309,1.95-9.47.05-.22.09-.45.139-.67q.57-2.76,1.14-5.52c2.25-2.63,13.32-15.02,30.681-15.109,17.309-.091,28.439,12.099,30.72,14.71.089.279.169.559.259.839.071.26.151.52.231.77.91,3.08,1.83,6.15,2.75,9.23a48.6545,48.6545,0,0,0-7.971-9.03m50.551,9.3q.9885-4.83,1.989-9.65c.05-.27.11-.53.16-.8.05-.21.09-.42.13-.63,2.25-2.63,13.32-15.01,30.691-15.11,17.299-.09,28.429,12.1,30.719,14.71.561,1.89,1.13,3.78,1.691,5.67.079.26.149.51.229.76q.645,2.205,1.311,4.41a44.77642,44.77642,0,0,0-3.631-4.679c-.239-.271-.489-.54-.739-.821-5.42-5.88-15.58-14.14-29.58-13.52-9.401.42-16.831,4.67-22.331,9.51-.29.25-.559.51-.839.76a54.21583,54.21583,0,0,0-8.04,9.44,46.94656,46.94656,0,0,0-2.71,4.53c.319-1.52.63-3.05.95-4.58m64.909,84.83c-11.529,14.72-38.85,16.94-55.21,5.92a30.78643,30.78643,0,0,1-6.59-5.92,31.81189,31.81189,0,0,1-6.9-18.85,58.00989,58.00989,0,0,1,1.65-16.07,58.72922,58.72922,0,0,1,1.641-5.82c4.979-14.92,16.949-33.03,33.849-32.98,19.991.06,32.13,25.46,35.5,40.09.22.96.491,2.1.75,3.401,1.54,7.609,3.031,20.369-4.69,30.229" transform="translate(0 -0.00021)"/>
            <path d="M777.8847,804.08951c-5.091,13.97-47.33,10.16-58.74,9.13a205.46854,205.46854,0,0,1-58.21-14.15c-.071-.03-.13-.05-.191-.08-.059-.02-.12-.04-.17-.06-.059-.02-.109-.04-.159-.06l109.59-10.2,2.65-.25c3.62,4.65,7.049,10.65,5.23,15.67" transform="translate(0 -0.00021)"/>
            <path d="M655.19431,625.26921a11.75,11.75,0,1,1-11.75-11.739,11.74916,11.74916,0,0,1,11.75,11.739" transform="translate(0 -0.00021)"/>
            <path d="M648.665,673.56992a11.745,11.745,0,1,1-11.75-11.75,11.74747,11.74747,0,0,1,11.75,11.75" transform="translate(0 -0.00021)"/>
            <path d="M589.914,797.61c-.05.02-.1.04-.159.06-.051.02-.111.04-.16.06-31.691,11.59-57.031,12.47-72.76,11.579-28.29-1.609-33.271-9.399-34.691-12.34-3.23-6.729-.57-14.649,1.67-19.46.13-.29.26-.569.39-.83l2.17.431,40.37,7.989,49.591,9.821Z" transform="translate(0 -0.00021)"/>
            <path d="M653.8847,716.63931a11.745,11.745,0,1,1-11.75-11.75,11.74768,11.74768,0,0,1,11.75,11.75" transform="translate(0 -0.00021)"/>
            <path class="cls-5" d="M778.624,525.69012a80.8619,80.8619,0,0,1-14.619-2.11,16.01775,16.01775,0,0,1-8.28,11.7c-.201.109-.5.26-.861.43-1.559.709-4.42,1.549-6.929-.43a6.72138,6.72138,0,0,1-.951-.91c-.28.299-.569.61-.86.91-6.92,7.41-16.09,13.95-26.93,19.389-.04.021-.08.041-.12.061q-1.56.78-3.17,1.529c-.509.241-1.019.481-1.54.71q-.53852.255-1.08.481c-.639.29-1.279.569-1.93.84-1.389.589-2.799,1.17-4.23,1.719-.659.26-1.31.51-1.97.75-.71.271-1.42.521-2.13.781-.049.019-.089.03-.139.049-4.2,1.491-8.571,2.84-13.071,4.04-.2.061-.389.111-.589.161-1.33.349-2.67.69-4.021,1.009-.16.04-.319.08-.479.12q-4.4865,1.0515-9.121,1.911c-.31.059-.62.12-.929.17-1.21.219-2.431.429-3.651.62-.389.07-.78.13-1.17.189-1.29.2-2.599.391-3.91.57-.24.031-.479.071-.719.101-1.55.199-3.111.39-4.681.56-.329.04-.649.07-.98.099-1.229.13-2.46.24-3.69.351l-1.5.12q-1.6785.135-3.39.239c-.469.03-.95.061-1.42.091-1.58.09-3.16.17-4.75.22a218.62806,218.62806,0,0,1-22.629-.41q-4.455-.33-8.85-.821c-2.92-.33-5.82-.719-8.681-1.17a188.67972,188.67972,0,0,1-28.63-6.719c-1.28-.42-2.549-.84-3.809-1.281a130.40719,130.40719,0,0,1-30.13-14.769c-.961-.641-1.891-1.3-2.811-1.971-1.089-.8-2.139-1.619-3.17-2.439a79.12317,79.12317,0,0,1-6.799-6.09c-.201-.21-.391-.42-.59-.63-.261-.261-.511-.53-.761-.801-.269-.279-.55-.559-.809-.849v-26.081c1.24,1.13,2.509,2.231,3.799,3.321.43.359.87.729,1.3,1.09a151.80805,151.80805,0,0,0,35.891,21.83c.3.229.599.45.91.67a42.35754,42.35754,0,0,0,23.319,8c.141.009.531.019,1.12.009a177.356,177.356,0,0,0,43.731,5.42c4.849,0,9.639-.2,14.359-.569q5.04149-.4065,9.96-1.08a49.339,49.339,0,0,0,11.931,1.449,43.23458,43.23458,0,0,0,27.309-11.17c.311-.269.611-.55.911-.83.83-.34,1.66-.68,2.48-1.029a151.729,151.729,0,0,0,39.209-23.92c.41-.351.82-.7,1.23-1.051.8-.699,1.6-1.409,2.39-2.13a83.46342,83.46342,0,0,1,15.221,6.191c.13.07.25.139.38.21.189.379.37.769.54,1.17.3-.121.62-.241.939-.361,1.28.731,2.5,1.471,3.691,2.221-1.241.109-2.54.279-3.901.519a13.88287,13.88287,0,0,1,.321,2.8c2.349-.05,4.969-.199,7.759-.5,2.491,1.801,4.721,3.591,6.68,5.301" transform="translate(0 -0.00021)"/>
            <path class="cls-5" d="M798.40417,511.64981a45.01227,45.01227,0,0,1-8.16,4.32,41.91026,41.91026,0,0,0-11.34-2.8,28.14822,28.14822,0,0,0-4.29-.111c1.48,1.781,2.851,3.531,4.12,5.221.74.19,1.441.399,2.11.64-.47.11-.94.21-1.4.31,1.68,2.28,3.18,4.449,4.46,6.42a37.31989,37.31989,0,0,0,6.3-.87c4.721,4.34,8.051,9.08,13.81,9.13,5,.04,9.121-3.47,11.86-6.51.211-2.69.43-5.37.64-8.06a36.43888,36.43888,0,0,1,12.79,6.4v-12.95s-12.85-13.361-30.9-1.14m11.96,10.8a14.37672,14.37672,0,0,1-7.08,0,16.66056,16.66056,0,0,1-4.17-1.4,23.50438,23.50438,0,0,1,16.44-1.94,10.41541,10.41541,0,0,1-5.19,3.34" transform="translate(0 -0.00021)"/>
            <path class="cls-3" d="M568.1347,534.36981a151.77517,151.77517,0,0,1-35.891-21.83c-.429-.36-.87-.731-1.299-1.09-1.29-1.09-2.56-2.19-3.8-3.32-2.1-1.91-4.12-3.87-6.08-5.88,1.09-.32,2.23-.64,3.429-.97a161.4582,161.4582,0,0,1,20.561-4.15c4.43-.611,8.66-1.01,12.59-1.281-.17.071-.34.131-.521.21a11.54588,11.54588,0,0,0-5.219,3.911,8.712,8.712,0,0,0-1.27,3.15c-1.38,6.71,3.84,15.479,5.189,17.74a47.89312,47.89312,0,0,0,12.311,13.51" transform="translate(0 -0.00021)"/>
            <path class="cls-3" d="M746.99411,508.13931c-.79.721-1.59,1.431-2.39,2.13q-.615.525-1.23,1.051a151.75661,151.75661,0,0,1-39.209,23.92c-.82.349-1.65.689-2.481,1.029a46.816,46.816,0,0,0,8.321-10.19c1.569-2.639,8.429-14.139,3.92-20.889a11.48128,11.48128,0,0,0-5.221-3.91c-.18-.08-.34-.141-.52-.21a169.83619,169.83619,0,0,1,33.151,5.429c2.059.56,3.93,1.111,5.659,1.64" transform="translate(0 -0.00021)"/>
            <path class="cls-3" d="M661.5341,546.82q-4.9185.6735-9.96,1.08c-4.72.369-9.51.569-14.359.569a177.356,177.356,0,0,1-43.731-5.42,51.988,51.988,0,0,0,17.101-3.419,38.38607,38.38607,0,0,0,19.639-16.161c.63-1.069,1.191-2.129,1.691-3.2a37.43115,37.43115,0,0,0,3.699,8.421c6.74,11.319,17.561,16.109,25.92,18.13" transform="translate(0 -0.00021)"/>
            <path d="M789.624,536.51923c-.369.311-3.97-4.689-11-10.829-1.959-1.71-4.189-3.5-6.68-5.301-1.32-.939-2.71-1.89-4.179-2.819-1.191-.75-2.411-1.49-3.691-2.221-.489-.269-.979-.54-1.479-.809-.13-.071-.25-.14-.38-.21a83.46649,83.46649,0,0,0-15.221-6.191c-1.729-.529-3.599-1.08-5.659-1.64a169.83936,169.83936,0,0,0-33.15-5.429c.179.069.339.13.519.21a11.48836,11.48836,0,0,1,5.221,3.91c4.51,6.75-2.351,18.25-3.92,20.89a46.85736,46.85736,0,0,1-8.32,10.189c-.3.28-.6.561-.911.83a43.23989,43.23989,0,0,1-27.309,11.17,49.34074,49.34074,0,0,1-11.931-1.449c-8.359-2.021-19.18-6.811-25.92-18.13a37.4768,37.4768,0,0,1-3.699-8.421c-.5,1.07-1.061,2.131-1.69,3.2a38.38465,38.38465,0,0,1-19.64,16.16,51.99756,51.99756,0,0,1-17.101,3.42c-.589.01-.979,0-1.12-.009a42.3577,42.3577,0,0,1-23.319-8c-.311-.22-.61-.441-.91-.67a47.89364,47.89364,0,0,1-12.311-13.51c-1.349-2.261-6.569-11.03-5.189-17.74a8.71506,8.71506,0,0,1,1.269-3.151,11.55754,11.55754,0,0,1,5.22-3.91c.181-.079.351-.14.521-.21-3.93.271-8.161.67-12.59,1.28a161.639,161.639,0,0,0-20.561,4.151c-1.199.33-2.34.649-3.43.969a86.65864,86.65864,0,0,0-17.45,6.861c-17.96,9.569-26.809,22.689-27.41,22.189-.769-.649,11.61-24.479,33.851-41.979.46-.37.92-.731,1.389-1.09a107.11348,107.11348,0,0,1,19.101-11.58,129.72309,129.72309,0,0,1,45.569-11.651,36.06547,36.06547,0,0,0,3.191,6.161c11.569,17.809,35.53,20.609,54.299,20.91a43.22859,43.22859,0,0,1,20.281-20.811,171.9473,171.9473,0,0,1,41.26-.529c18.889,2.159,40.24,8.26,59.24,22.72q1.995,1.5135,3.889,3.109a127.99958,127.99958,0,0,1,16.34,16.5c1.481,1.78,2.851,3.53,4.12,5.221.241.319.47.63.71.95,1.68,2.279,3.18,4.449,4.46,6.42,4.05,6.25,6.04,10.599,5.72,10.869" transform="translate(0 -0.00021)"/>
            <path d="M614.8447,364.58951c-16.62,11.061-28.021,29.25-29.01,30.87a90.00992,90.00992,0,0,0-6.41,12.64c-11.891-.03-23.88-4.26-30.98-12.85-10.31-12.48-6.48-29.49-5.26-34.92,3.49-15.52,16.309-38.86,35.5-38.8,19.979.06,32.13,25.451,35.5,40.09.189.85.42,1.85.66,2.97" transform="translate(0 -0.00021)"/>
            <path class="cls-4" d="M603.7099,347.18521c-3.618-6.101-6.852-11.423-13.55-14.957a26.63516,26.63516,0,0,0-18.065-2.493c28.239,34.557,37.001,41.307,39.156,39.864,2.47-1.655-2.917-14.614-7.541-22.414" transform="translate(0 -0.00021)"/>
            <path d="M612.25481,309.77991a48.58091,48.58091,0,0,0-7.971-9.03c-.269-.241-.55-.491-.84-.731-5.82-4.92895-14.339-9.739-25.149-9.26-11.9.531-20.66,7.21-26.301,13.441-.229.25-.449.5-.67.74a51.99464,51.99464,0,0,0-6.939,10.06c.649-3.16,1.3-6.31,1.95-9.47.05-.221.09-.45.14-.67q.57-2.7615,1.139-5.51995c2.25-2.63,13.321-15.02,30.681-15.11,17.31-.091,28.439,12.1,30.72,14.71.09.279.17.56.26.84.07.26.15.52.23.77q1.365,4.62,2.75,9.23" transform="translate(0 -0.00021)"/>
            <path class="cls-6" d="M695.1445,470.7301a171.949,171.949,0,0,0-41.26.529,43.22843,43.22843,0,0,0-20.28,20.811c-18.77-.301-42.731-3.101-54.3-20.91a36.15949,36.15949,0,0,1-3.19-6.16c-3.39-8.39-3.37-17.1-3.33-25.161a83.38951,83.38951,0,0,1,3.97-24.359c.74-2.37,1.63-4.841,2.67-7.381a90.11584,90.11584,0,0,1,6.41-12.64c.99-1.62,12.39-19.809,29.01-30.87a59.26419,59.26419,0,0,1,8.1-4.559,39.11232,39.11232,0,0,1,20.32-3.731c1.21.13,2.31.311,3.3.5-2.74,9.34-7.76,27.8,2,41.701a33.49124,33.49124,0,0,0,9.53,8.929l7.36,44.151a23.28939,23.28939,0,0,1,14.35-3.911c5.9.43,14.54,3.46,16.97,10.441,1.58,4.51.28,9-1.63,12.62" transform="translate(0 -0.00021)"/>
            <path d="M712.21481,346.82c-3.62-6.101-6.851-11.42-13.55-14.96a26.58366,26.58366,0,0,0-18.06-2.49c22.32,27.32,32.48,37.269,36.81,39.51,1.15.6,1.89.65,2.34.35.48-.32.66-1.07.609-2.131-.21-4.369-4.429-13.989-8.149-20.279" transform="translate(0 -0.00021)"/>
            <path d="M724.43478,364.65012c-.26-1.301-.531-2.441-.75-3.4-3.37-14.63-15.51-40.031-35.5-40.09-16.901-.05-28.87,18.059-33.85,32.979a58.80105,58.80105,0,0,0-1.641,5.82,58.01324,58.01324,0,0,0-1.65,16.071,31.81574,31.81574,0,0,0,6.9,18.849,30.75952,30.75952,0,0,0,6.59,5.92c16.361,11.021,43.681,8.8,55.21-5.92,7.721-9.86,6.231-22.62,4.691-30.229m-4.68,4.58c-.45.3-1.19.25-2.34-.351-4.33-2.24-14.49-12.189-36.81-39.509a26.58365,26.58365,0,0,1,18.06,2.49c6.699,3.54,9.93,8.859,13.55,14.96,3.72,6.29,7.939,15.91,8.149,20.279.051,1.061-.13,1.811-.609,2.131" transform="translate(0 -0.00021)"/>
            <path class="cls-4" d="M720.3642,367.0993c.051,1.061-.13,1.811-.609,2.131-.451.3-1.191.25-2.34-.351-4.33-2.24-14.49-12.189-36.811-39.509a26.58025,26.58025,0,0,1,18.061,2.49c6.699,3.54,9.929,8.859,13.55,14.96,3.719,6.29,7.939,15.91,8.149,20.279" transform="translate(0 -0.00021)"/>
            <path d="M721.75479,309.40982a44.71136,44.71136,0,0,0-3.631-4.68c-.239-.27-.489-.54-.739-.82-5.42-5.88-15.58-14.141-29.58-13.521-9.401.42-16.83,4.67-22.33,9.511-.29.25-.56.51-.84.76a54.29494,54.29494,0,0,0-8.04,9.439,47.27052,47.27052,0,0,0-2.71,4.531c.319-1.52.63-3.05.95-4.58q.9885-4.83,1.989-9.65c.05-.27.111-.53.16-.801.05-.21.09-.419.13-.629,2.25-2.63,13.321-15.01,30.691-15.11,17.3-.091,28.429,12.1,30.72,14.71.56,1.89,1.129,3.77906,1.69,5.67.079.26.149.51.229.76.43,1.47.871,2.94,1.311,4.41" transform="translate(0 -0.00021)"/>
          </g>
        </g>
      </g>
      <g id="Tomato">
        <g class="cls-7">
          <g class="cls-7">
            <path class="cls-5" d="M262,456.347c0,63.513-57.755,115-129,115S4,519.86,4,456.347s57.755-115,129-115,129,51.487,129,115" transform="translate(0 -0.00021)"/>
            <ellipse class="cls-8" cx="133" cy="456.34677" rx="129" ry="115"/>
            <path class="cls-9" d="M133,378.347c-5.115,1.044-8.253-15.999-19-18-9.307-1.733-16.64,9.245-22,6-4.136-2.503-.989-9.778-5-13-7.535-6.053-29.254,11.084-30,10-.705-1.025,15.14-21.525,40.355-25.5,12.334-1.944,19.821,1.181,24.258-4.25,5.66-6.928-3.211-16.02,1.548-28.591,4.768-12.593,20.572-20.603,25.807-17.234,2.963,1.907,3.018,7.762,2.032,11.575-2.117,8.187-9.434,8.509-12,16-2.159,6.302.026,14.809,5,19,6.369,5.366,13.035.055,25,3,15.625,3.846,25.329,18.089,24,20-1.653,2.377-22.125-11.838-28-6-2.776,2.758-.002,7.719-3,10-4.404,3.351-12.497-5.753-19-3-7.54,3.192-5.088,18.998-10,20" transform="translate(0 -0.00021)"/>
            <path class="cls-10" d="M133,378.347c-5.115,1.044-8.253-15.999-19-18-9.307-1.733-16.64,9.245-22,6-4.136-2.503-.989-9.778-5-13-7.535-6.053-29.254,11.084-30,10-.705-1.025,15.14-21.525,40.355-25.5,12.334-1.944,19.821,1.181,24.258-4.25,5.66-6.928-3.211-16.02,1.548-28.591,4.768-12.593,20.572-20.603,25.807-17.234,2.963,1.907,3.018,7.762,2.032,11.575-2.117,8.187-9.434,8.509-12,16-2.159,6.302.026,14.809,5,19,6.369,5.366,13.035.055,25,3,15.625,3.846,25.329,18.089,24,20-1.653,2.377-22.125-11.838-28-6-2.776,2.758-.002,7.719-3,10-4.404,3.351-12.497-5.753-19-3C135.46,361.539,137.912,377.345,133,378.347Z" transform="translate(0 -0.00021)"/>
            <path class="cls-4" d="M131,433.847a44.5,44.5,0,1,1-44.5-44.5,44.49957,44.49957,0,0,1,44.5,44.5" transform="translate(0 -0.00021)"/>
            <path d="M117,436.347c0,18.778-12.76,34-28.5,34s-28.5-15.222-28.5-34,12.76-34,28.5-34,28.5,15.222,28.5,34" transform="translate(0 -0.00021)"/>
            <path class="cls-4" d="M100,416.847a5.5,5.5,0,1,1-5.5-5.5,5.49944,5.49944,0,0,1,5.5,5.5" transform="translate(0 -0.00021)"/>
            <path class="cls-4" d="M108,421.847a5.5,5.5,0,1,1-5.5-5.5,5.49944,5.49944,0,0,1,5.5,5.5" transform="translate(0 -0.00021)"/>
            <path class="cls-4" d="M229,433.847a44.5,44.5,0,1,1-44.5-44.5,44.49957,44.49957,0,0,1,44.5,44.5" transform="translate(0 -0.00021)"/>
            <path d="M215,436.347c0,18.778-12.76,34-28.5,34s-28.5-15.222-28.5-34,12.76-34,28.5-34,28.5,15.222,28.5,34" transform="translate(0 -0.00021)"/>
            <path class="cls-4" d="M198,416.847a5.5,5.5,0,1,1-5.5-5.5,5.49944,5.49944,0,0,1,5.5,5.5" transform="translate(0 -0.00021)"/>
            <path class="cls-4" d="M206,421.847a5.5,5.5,0,1,1-5.5-5.5,5.49944,5.49944,0,0,1,5.5,5.5" transform="translate(0 -0.00021)"/>
          </g>
        </g>
      </g>
      <g id="Olives">
        <g class="cls-11">
          <g class="cls-11">
            <path class="cls-12" d="M304.02361,784.47269c-6.788,27.621-30.986,45.418-54.048,39.75-23.062-5.667-36.255-32.653-29.467-60.273,6.788-27.622,30.986-45.418,54.048-39.75,23.062,5.667,36.255,32.652,29.467,60.273" transform="translate(0 -0.00021)"/>
            <path class="cls-13" d="M304.02361,784.47269c-6.788,27.621-30.986,45.418-54.048,39.75-23.062-5.667-36.255-32.653-29.467-60.273,6.788-27.622,30.986-45.418,54.048-39.75C297.61859,729.8667,310.8116,756.8517,304.02361,784.47269Z" transform="translate(0 -0.00021)"/>
            <path class="cls-4" d="M264.3073,758.96829c-3.975,11.033-14.021,17.519-22.439,14.486-8.419-3.033-12.021-14.435-8.046-25.468,3.974-11.034,14.021-17.519,22.439-14.486,8.419,3.032,12.021,14.435,8.046,25.468" transform="translate(0 -0.00021)"/>
            <path d="M259.1076,758.36279c-3.037,8.43-9.87,13.689-15.261,11.747-5.391-1.943-7.3-10.351-4.263-18.781,3.037-8.429,9.869-13.688,15.26-11.746,5.392,1.942,7.301,10.35,4.264,18.78" transform="translate(0 -0.00021)"/>
            <path class="cls-4" d="M256.4381,747.51129c-.491,1.364-1.733,2.165-2.773,1.791-1.041-.375-1.486-1.785-.995-3.148.492-1.364,1.733-2.165,2.773-1.791,1.041.375,1.486,1.784.995,3.148" transform="translate(0 -0.00021)"/>
            <path class="cls-4" d="M258.3698,750.74319c-.491,1.364-1.733,2.165-2.773,1.791-1.041-.375-1.486-1.785-.995-3.148.492-1.364,1.733-2.165,2.773-1.791,1.041.375,1.486,1.784.995,3.148" transform="translate(0 -0.00021)"/>
            <path class="cls-4" d="M288.62421,771.646c-2.001,6.914-7.9,11.281-13.176,9.754s-7.929-8.371-5.928-15.285,7.9-11.281,13.176-9.753c5.276,1.527,7.929,8.37,5.928,15.284" transform="translate(0 -0.00021)"/>
            <path d="M285.4157,771.479c-1.529,5.283-5.508,8.772-8.887,7.794s-4.878-6.053-3.348-11.336c1.529-5.282,5.507-8.772,8.886-7.794s4.878,6.054,3.349,11.336" transform="translate(0 -0.00021)"/>
            <path class="cls-4" d="M283.3546,764.937a1.2742,1.2742,0,1,1-.733-1.889,1.46159,1.46159,0,0,1,.733,1.889" transform="translate(0 -0.00021)"/>
            <path class="cls-4" d="M284.6647,766.84089a1.2742,1.2742,0,1,1-.733-1.889,1.46158,1.46158,0,0,1,.733,1.889" transform="translate(0 -0.00021)"/>
            <path class="cls-9" d="M211.2663,728.711c8.122-8.507,23.62-25.142,20-41-1.106-4.847-4.3-10.941-8-18a170.58558,170.58558,0,0,0-9.778-16.365c6.427,2.22,24.186,9.318,35.714,27.838,3.087,4.961,9.189,14.763,9.064,27.527-.304,31.23-37.584,49.867-42,52-25.709,12.415-54.933,10.112-56.223,4.752-1.263-5.249,25.204-9.498,51.223-36.752" transform="translate(0 -0.00021)"/>
            <path class="cls-14" d="M211.2663,728.711c8.122-8.507,23.62-25.142,20-41-1.106-4.847-4.3-10.941-8-18a170.58558,170.58558,0,0,0-9.778-16.365c6.427,2.22,24.186,9.318,35.714,27.838,3.087,4.961,9.189,14.763,9.064,27.527-.304,31.23-37.584,49.867-42,52-25.709,12.415-54.933,10.112-56.223,4.752C158.7803,760.214,185.2473,755.965,211.2663,728.711Z" transform="translate(0 -0.00021)"/>
            <path class="cls-9" d="M301.2663,678.711a81.8158,81.8158,0,0,1,30,7c4.692,2.104,34.828,16.178,44,48,11.696,40.581-19.036,81.107-27,79-9.823-2.599,15.917-69.809-20-113a82.76031,82.76031,0,0,0-27-21" transform="translate(0 -0.00021)"/>
            <path class="cls-14" d="M301.2663,678.711a81.8158,81.8158,0,0,1,30,7c4.692,2.104,34.828,16.178,44,48,11.696,40.581-19.036,81.107-27,79-9.823-2.599,15.917-69.809-20-113A82.76031,82.76031,0,0,0,301.2663,678.711Z" transform="translate(0 -0.00021)"/>
            <path class="cls-12" d="M360.90829,730.7178c11.795,20.431,6.678,45.469-11.43,55.923-18.109,10.455-42.351,2.369-54.147-18.063-11.796-20.43-6.678-45.468,11.431-55.923,18.108-10.455,42.35-2.368,54.146,18.063" transform="translate(0 -0.00021)"/>
            <path class="cls-13" d="M360.90829,730.7178c11.795,20.431,6.678,45.469-11.43,55.923-18.109,10.455-42.351,2.369-54.147-18.063-11.796-20.43-6.678-45.468,11.431-55.923C324.87029,702.1998,349.11229,710.2868,360.90829,730.7178Z" transform="translate(0 -0.00021)"/>
            <path class="cls-4" d="M320.1452,736.54739c3.336,7.681,1.29,15.972-4.571,18.517-5.861,2.546-13.317-1.617-16.653-9.298s-1.29-15.972,4.571-18.518c5.861-2.545,13.317,1.618,16.653,9.299" transform="translate(0 -0.00021)"/>
            <path d="M317.1456,738.77879c2.549,5.869,1.573,11.948-2.181,13.578-3.753,1.63-8.862-1.805-11.412-7.674-2.549-5.869-1.573-11.948,2.181-13.578,3.754-1.631,8.863,1.805,11.412,7.674" transform="translate(0 -0.00021)"/>
            <path class="cls-4" d="M310.4445,734.4453a1.48238,1.48238,0,1,1-2.058-1.149,1.69734,1.69734,0,0,1,2.058,1.149" transform="translate(0 -0.00021)"/>
            <path class="cls-4" d="M313.0309,735.17919a1.48238,1.48238,0,1,1-2.058-1.149,1.69734,1.69734,0,0,1,2.058,1.149" transform="translate(0 -0.00021)"/>
            <path class="cls-4" d="M344.37511,729.6636c2.105,4.848.814,10.081-2.885,11.688-3.699,1.606-8.405-1.021-10.511-5.869-2.105-4.848-.814-10.081,2.885-11.688s8.405,1.021,10.511,5.869" transform="translate(0 -0.00021)"/>
            <path d="M342.4821,731.0723c1.609,3.704.993,7.541-1.376,8.57-2.37,1.029-5.594-1.139-7.203-4.843-1.609-3.705-.993-7.542,1.376-8.571s5.594,1.14,7.203,4.844" transform="translate(0 -0.00021)"/>
            <path class="cls-4" d="M338.25259,728.337a.93595.93595,0,1,1-1.299-.726,1.07117,1.07117,0,0,1,1.299.726" transform="translate(0 -0.00021)"/>
            <path class="cls-4" d="M339.8849,728.80029a.93595.93595,0,1,1-1.299-.726,1.07117,1.07117,0,0,1,1.299.726" transform="translate(0 -0.00021)"/>
            <path class="cls-14" d="M277.2663,720.711a55.48386,55.48386,0,0,0,8-23c2.06-18.543-6.11-32.514-9-37" transform="translate(0 -0.00021)"/>
            <path class="cls-14" d="M316.2663,703.711a72.97765,72.97765,0,0,0-10-19c-10.432-14.21-23.275-20.7-30-24-25.69-12.609-50.447-9.883-62.778-8.365a130.39128,130.39128,0,0,0-24.222,5.365" transform="translate(0 -0.00021)"/>
          </g>
        </g>
      </g>
      <g id="Onion">
        <g class="cls-15">
          <g class="cls-15">
            <path class="cls-16" d="M1035.1433,252.4934c-24.022,27.326-60.26,26.258-69,26-12.602-.372-38.697-1.141-58-22-1.541-1.665-23.306-25.978-17-58,.853-4.33,4.542-21.817,19-34,9.893-8.336,14.042-5.1,29-14,22.146-13.177,22.908-26.136,34-26,11.238.138,11.754,13.458,33,27,16.424,10.468,21.991,6.252,32,16,14.118,13.751,14.836,33.633,15,38,.934,24.932-13.788,42.209-18,47" transform="translate(0 -0.00021)"/>
            <path class="cls-17" d="M1035.1433,252.4934c-24.022,27.326-60.26,26.258-69,26-12.602-.372-38.697-1.141-58-22-1.541-1.665-23.306-25.978-17-58,.853-4.33,4.542-21.817,19-34,9.893-8.336,14.042-5.1,29-14,22.146-13.177,22.908-26.136,34-26,11.238.138,11.754,13.458,33,27,16.424,10.468,21.991,6.252,32,16,14.118,13.751,14.836,33.633,15,38C1054.07729,230.4254,1039.35529,247.7024,1035.1433,252.4934Z" transform="translate(0 -0.00021)"/>
            <path class="cls-9" d="M972.2458,123.10809c-7.113.456-13.52-18.596-15-23-7.021-20.882-5.229-42.586-2-43,4.522-.58,11.183,40.697,17,40,2.836-.34,2.688-10.325,8-32,2.684-10.95,6.213-25.353,8.226-25.105,2.594.319,2.61,24.994-2.226,49.105-2.591,12.917-6.727,33.534-14,34" transform="translate(0 -0.00021)"/>
            <path class="cls-10" d="M972.2458,123.10809c-7.113.456-13.52-18.596-15-23-7.021-20.882-5.229-42.586-2-43,4.522-.58,11.183,40.697,17,40,2.836-.34,2.688-10.325,8-32,2.684-10.95,6.213-25.353,8.226-25.105,2.594.319,2.61,24.994-2.226,49.105C983.65479,102.0251,979.51879,122.64211,972.2458,123.10809Z" transform="translate(0 -0.00021)"/>
            <path class="cls-17" d="M971.1433,128.49339a145.48869,145.48869,0,0,1-8,33c-5.581,15.029-8.768,15.86-13,27-2.29,6.027-12.116,34.715,1,63a69.45356,69.45356,0,0,0,20,25" transform="translate(0 -0.00021)"/>
            <path class="cls-17" d="M973.196,127.198c2.781,7.38,6.689,18.136,10.947,31.295,6.554,20.259,9.83,30.388,11,41,1.022,9.274,2.657,25.739-4,45a92.19628,92.19628,0,0,1-17.947,30.705" transform="translate(0 -0.00021)"/>
            <path class="cls-17" d="M971.4909,128.198a99.53957,99.53957,0,0,1-19.348,28.295c-13.347,13.59-20.421,12.594-28,22-13.386,16.613-13.358,47.077,1,69,15.679,23.94,42.053,28.1,46.348,28.705" transform="translate(0 -0.00021)"/>
            <path class="cls-17" d="M973.8591,127.41229a99.53917,99.53917,0,0,0,19.348,28.295c13.347,13.591,20.421,12.594,28,22,13.386,16.614,13.358,47.078-1,69-15.679,23.94-42.053,28.1-46.348,28.705" transform="translate(0 -0.00021)"/>
            <path class="cls-4" d="M964.1433,188.4934c-.241.599-6.268,14.884-20,16-10.932.888-23.333-6.846-24-17-.456-6.939,4.604-14.47,11-17,8.452-3.343,15.582,3.491,22-1,4.657-3.259,3.917-8.969,6-9,3.384-.05,10.257,14.951,5,28" transform="translate(0 -0.00021)"/>
            <path d="M954.1433,187.4026c0,6.678-6.268,12.091-14,12.091s-14-5.413-14-12.091,6.268-12.091,14-12.091,14,5.413,14,12.091" transform="translate(0 -0.00021)"/>
            <path class="cls-4" d="M928.1433,182.4934a6,6,0,1,1,6,6,6.00091,6.00091,0,0,1-6-6" transform="translate(0 -0.00021)"/>
            <path class="cls-4" d="M975.8552,188.655c.241.599,6.268,14.884,20,16,10.931.888,23.333-6.846,24-17,.455-6.939-4.604-14.47-11-17-8.452-3.343-15.583,3.491-22-1-4.657-3.259-3.918-8.969-6-9-3.385-.05-10.258,14.951-5,28" transform="translate(0 -0.00021)"/>
            <path d="M985.8552,187.5642c0,6.678,6.268,12.091,14,12.091,7.731,0,14-5.413,14-12.091s-6.269-12.091-14-12.091c-7.732,0-14,5.413-14,12.091" transform="translate(0 -0.00021)"/>
            <path class="cls-4" d="M999.1433,183.4934a6,6,0,1,0-6,6,6.00091,6.00091,0,0,0,6-6" transform="translate(0 -0.00021)"/>
          </g>
        </g>
      </g>
      <g id="Mushroom">
        <g class="cls-18">
          <g class="cls-18">
            <path class="cls-19" d="M1171.29939,520h-33.322a17.83863,17.83863,0,0,1-17.839-17.839V468.839a17.83863,17.83863,0,0,1,17.839-17.839h33.322a17.83862,17.83862,0,0,1,17.839,17.839v33.322a17.83862,17.83862,0,0,1-17.839,17.839" transform="translate(0 -0.00021)"/>
            <path class="cls-20" d="M1137.97739,450.99979h33.322a17.839,17.839,0,0,1,17.839,17.839v33.322a17.839,17.839,0,0,1-17.839,17.839h-33.322a17.839,17.839,0,0,1-17.839-17.839v-33.322A17.839,17.839,0,0,1,1137.97739,450.99979Z"/>
            <path class="cls-4" d="M1155.1382,487c0,8.836-6.044,16-13.5,16s-13.5-7.164-13.5-16,6.044-16,13.5-16,13.5,7.164,13.5,16" transform="translate(0 -0.00021)"/>
            <path d="M1150.8912,487.8989c0,6.751-3.871,12.225-8.646,12.225s-8.646-5.474-8.646-12.225,3.871-12.225,8.646-12.225,8.646,5.474,8.646,12.225" transform="translate(0 -0.00021)"/>
            <path class="cls-4" d="M1141.1382,479.5728a2.59434,2.59434,0,1,1-2.589-2.428,2.51211,2.51211,0,0,1,2.589,2.428" transform="translate(0 -0.00021)"/>
            <path class="cls-4" d="M1146.9371,481.8872a2.59434,2.59434,0,1,1-2.589-2.428,2.5121,2.5121,0,0,1,2.589,2.428" transform="translate(0 -0.00021)"/>
            <path class="cls-4" d="M1141.9371,485.8872a2.59434,2.59434,0,1,1-2.589-2.428,2.5121,2.5121,0,0,1,2.589,2.428" transform="translate(0 -0.00021)"/>
            <path class="cls-4" d="M1183.1382,485.645c0,8.837-5.972,16-13.339,16-7.366,0-13.339-7.163-13.339-16,0-8.836,5.973-16,13.339-16,7.367,0,13.339,7.164,13.339,16" transform="translate(0 -0.00021)"/>
            <path d="M1178.942,486.5439c0,6.751-3.825,12.225-8.543,12.225s-8.543-5.474-8.543-12.225,3.825-12.225,8.543-12.225,8.543,5.474,8.543,12.225" transform="translate(0 -0.00021)"/>
            <path class="cls-4" d="M1173.9371,480.8872a2.59434,2.59434,0,1,1-2.589-2.428,2.51211,2.51211,0,0,1,2.589,2.428" transform="translate(0 -0.00021)"/>
            <path class="cls-4" d="M1180.9371,481.8872a2.59434,2.59434,0,1,1-2.589-2.428,2.51211,2.51211,0,0,1,2.589,2.428" transform="translate(0 -0.00021)"/>
            <path class="cls-4" d="M1176.9371,485.8872a2.59434,2.59434,0,1,1-2.589-2.428,2.51211,2.51211,0,0,1,2.589,2.428" transform="translate(0 -0.00021)"/>
            <path class="cls-19" d="M1253.1382,407.5c4.813,17.303,6.765,47.999-11,64.5-14.993,13.927-30.701,5.361-90,5-61.354-.374-78.37,8.59-93-6-20.511-20.455-9.059-60.008-8-63.5,12.357-40.74,56.629-69.487,101-69.5,43.861-.013,89.47,28.052,101,69.5" transform="translate(0 -0.00021)"/>
            <path class="cls-20" d="M1253.1382,407.5c4.813,17.303,6.765,47.999-11,64.5-14.993,13.927-30.701,5.361-90,5-61.354-.374-78.37,8.59-93-6-20.511-20.455-9.059-60.008-8-63.5,12.357-40.74,56.629-69.487,101-69.5C1195.99919,337.987,1241.60818,366.052,1253.1382,407.5Z" transform="translate(0 -0.00021)"/>
          </g>
        </g>
      </g>
      <g id="Pineapple_alive" data-name="Pineapple alive">
        <g class="cls-21">
          <g class="cls-21">
            <path class="cls-22" d="M1059.10429,771.1908l21.609-27.654c-2.605-17.812-9.026-33.902-18.141-46.824l-30.834,39.458Z" transform="translate(0 -0.00021)"/>
            <path class="cls-23" d="M1059.10429,771.1908l21.609-27.654c-2.605-17.812-9.026-33.902-18.141-46.824l-30.834,39.458Z" transform="translate(0 -0.00021)"/>
            <path class="cls-22" d="M1031.7386,736.1708l30.833-39.458a79.06,79.06,0,0,0-26.973-24.464l-26.904,34.431Z" transform="translate(0 -0.00021)"/>
            <path class="cls-23" d="M1031.7386,736.1708l30.833-39.458a79.06,79.06,0,0,0-26.973-24.464l-26.904,34.431Z" transform="translate(0 -0.00021)"/>
            <polygon class="cls-22" points="1007.739 766.883 1035.104 801.903 1059.104 771.191 1031.739 736.171 1007.739 766.883"/>
            <polygon class="cls-23" points="1007.739 766.883 1035.104 801.903 1059.104 771.191 1031.739 736.171 1007.739 766.883"/>
            <polygon class="cls-22" points="979.217 803.383 1006.583 838.403 1035.104 801.903 1007.739 766.883 979.217 803.383"/>
            <polygon class="cls-23" points="979.217 803.383 1006.583 838.403 1035.104 801.903 1007.739 766.883 979.217 803.383"/>
            <path class="cls-22" d="M1077.42461,794.6351a120.832,120.832,0,0,0,4.584-33.224,123.54522,123.54522,0,0,0-1.295-17.874l-21.609,27.654Z" transform="translate(0 -0.00021)"/>
            <path class="cls-23" d="M1077.42461,794.6351a120.832,120.832,0,0,0,4.584-33.224,123.54522,123.54522,0,0,0-1.295-17.874l-21.609,27.654Z" transform="translate(0 -0.00021)"/>
            <polygon class="cls-22" points="1031.739 736.171 1008.695 706.68 984.695 737.393 1007.739 766.883 1031.739 736.171"/>
            <polygon class="cls-23" points="1031.739 736.171 1008.695 706.68 984.695 737.393 1007.739 766.883 1031.739 736.171"/>
            <path class="cls-22" d="M1035.5989,672.2489a60.49754,60.49754,0,0,0-55.03-1.561l28.125,35.992Z" transform="translate(0 -0.00021)"/>
            <path class="cls-23" d="M1035.5989,672.2489a60.49754,60.49754,0,0,0-55.03-1.561l28.125,35.992Z" transform="translate(0 -0.00021)"/>
            <polygon class="cls-22" points="984.694 737.392 956.173 773.892 979.217 803.383 1007.739 766.883 984.694 737.392"/>
            <polygon class="cls-23" points="984.694 737.392 956.173 773.892 979.217 803.383 1007.739 766.883 984.694 737.392"/>
            <path class="cls-22" d="M979.2171,803.3832l-23.242,29.743c10.098,11.665,22.671,19.883,36.589,23.216l14.019-17.939Z" transform="translate(0 -0.00021)"/>
            <path class="cls-23" d="M979.2171,803.3832l-23.242,29.743c10.098,11.665,22.671,19.883,36.589,23.216l14.019-17.939Z" transform="translate(0 -0.00021)"/>
            <path class="cls-22" d="M1006.5828,838.4032l14.001,17.918c14.468-3.486,27.477-12.252,37.759-24.679l-23.239-29.739Z" transform="translate(0 -0.00021)"/>
            <path class="cls-23" d="M1006.5828,838.4032l14.001,17.918c14.468-3.486,27.477-12.252,37.759-24.679l-23.239-29.739Z" transform="translate(0 -0.00021)"/>
            <path class="cls-22" d="M1008.6941,706.6796l-28.125-35.992c-11.092,5.2-20.963,13.64-28.918,24.419l33.043,42.286Z" transform="translate(0 -0.00021)"/>
            <path class="cls-23" d="M1008.6941,706.6796l-28.125-35.992c-11.092,5.2-20.963,13.64-28.918,24.419l33.043,42.286Z" transform="translate(0 -0.00021)"/>
            <path class="cls-22" d="M1059.10429,771.1908l-24,30.712,23.239,29.739a102.09544,102.09544,0,0,0,19.081-37.007Z" transform="translate(0 -0.00021)"/>
            <path class="cls-23" d="M1059.10429,771.1908l-24,30.712,23.239,29.739a102.09544,102.09544,0,0,0,19.081-37.007Z" transform="translate(0 -0.00021)"/>
            <path class="cls-22" d="M992.5643,856.3426a59.689,59.689,0,0,0,28.02-.021l-14.001-17.918Z" transform="translate(0 -0.00021)"/>
            <path class="cls-23" d="M992.5643,856.3426a59.689,59.689,0,0,0,28.02-.021l-14.001-17.918Z" transform="translate(0 -0.00021)"/>
            <path class="cls-22" d="M984.6941,737.3924l-33.043-42.286c-9.71,13.158-16.561,29.807-19.285,48.321l23.807,30.465Z" transform="translate(0 -0.00021)"/>
            <path class="cls-23" d="M984.6941,737.3924l-33.043-42.286c-9.71,13.158-16.561,29.807-19.285,48.321l23.807,30.465Z" transform="translate(0 -0.00021)"/>
            <path class="cls-22" d="M932.366,743.4271a123.59178,123.59178,0,0,0-1.311,17.984,120.00522,120.00522,0,0,0,5.804,37.198l19.314-24.717Z" transform="translate(0 -0.00021)"/>
            <path class="cls-23" d="M932.366,743.4271a123.59178,123.59178,0,0,0-1.311,17.984,120.00522,120.00522,0,0,0,5.804,37.198l19.314-24.717Z" transform="translate(0 -0.00021)"/>
            <path class="cls-22" d="M956.1727,773.8924l-19.314,24.716a100.20264,100.20264,0,0,0,19.117,34.518l23.241-29.743Z" transform="translate(0 -0.00021)"/>
            <path class="cls-23" d="M956.1727,773.8924l-19.314,24.716a100.20264,100.20264,0,0,0,19.117,34.518l23.241-29.743Z" transform="translate(0 -0.00021)"/>
            <polygon class="cls-24" points="953.463 693.323 1061.49 693.323 1094.676 634.447 953.463 693.323"/>
            <polyline class="cls-9" points="920 634.447 1061.213 693.323 953.186 693.323"/>
            <polyline class="cls-25" points="1007.338 670.861 971.089 655.747 1007.338 593 1038.097 658.036"/>
            <path class="cls-4" d="M961.909,708.2704a27.44474,27.44474,0,1,0,38.902,27.169Z" transform="translate(0 -0.00021)"/>
            <path class="cls-26" d="M961.909,708.2704a27.44474,27.44474,0,1,0,38.902,27.169Z" transform="translate(0 -0.00021)"/>
            <path d="M994.0506,742.0521c0,8.792-4.57,15.919-10.208,15.919-5.637,0-10.207-7.127-10.207-15.919s4.57-15.919,10.207-15.919c5.638,0,10.208,7.127,10.208,15.919" transform="translate(0 -0.00021)"/>
            <path class="cls-4" d="M1054.5921,708.2704a27.44456,27.44456,0,1,1-38.901,27.169Z" transform="translate(0 -0.00021)"/>
            <path class="cls-26" d="M1054.5921,708.2704a27.44456,27.44456,0,1,1-38.901,27.169Z" transform="translate(0 -0.00021)"/>
            <path d="M1047.7859,737.8299c0,8.792,4.57,15.919,10.207,15.919s10.207-7.127,10.207-15.919-4.57-15.919-10.207-15.919-10.207,7.127-10.207,15.919" transform="translate(0 -0.00021)"/>
          </g>
        </g>
      </g>
      <g id="Pineapple_alive-2" data-name="Pineapple alive">
        <g class="cls-27">
          <g class="cls-27">
            <path class="cls-22" d="M413.10429,178.1908l21.609-27.654c-2.605-17.812-9.026-33.902-18.141-46.824l-30.834,39.458Z" transform="translate(0 -0.00021)"/>
            <path class="cls-23" d="M413.10429,178.1908l21.609-27.654c-2.605-17.812-9.026-33.902-18.141-46.824l-30.834,39.458Z" transform="translate(0 -0.00021)"/>
            <path class="cls-22" d="M385.7386,143.1708l30.833-39.458a79.06,79.06,0,0,0-26.973-24.464l-26.904,34.431Z" transform="translate(0 -0.00021)"/>
            <path class="cls-23" d="M385.7386,143.1708l30.833-39.458a79.06,79.06,0,0,0-26.973-24.464l-26.904,34.431Z" transform="translate(0 -0.00021)"/>
            <polygon class="cls-22" points="361.739 173.883 389.104 208.903 413.104 178.191 385.739 143.171 361.739 173.883"/>
            <polygon class="cls-23" points="361.739 173.883 389.104 208.903 413.104 178.191 385.739 143.171 361.739 173.883"/>
            <polygon class="cls-22" points="333.217 210.383 360.583 245.403 389.104 208.903 361.739 173.883 333.217 210.383"/>
            <polygon class="cls-23" points="333.217 210.383 360.583 245.403 389.104 208.903 361.739 173.883 333.217 210.383"/>
            <path class="cls-22" d="M431.42461,201.6351a120.832,120.832,0,0,0,4.584-33.224,123.54522,123.54522,0,0,0-1.295-17.874l-21.609,27.654Z" transform="translate(0 -0.00021)"/>
            <path class="cls-23" d="M431.42461,201.6351a120.832,120.832,0,0,0,4.584-33.224,123.54522,123.54522,0,0,0-1.295-17.874l-21.609,27.654Z" transform="translate(0 -0.00021)"/>
            <polygon class="cls-22" points="385.739 143.171 362.695 113.68 338.695 144.393 361.739 173.883 385.739 143.171"/>
            <polygon class="cls-23" points="385.739 143.171 362.695 113.68 338.695 144.393 361.739 173.883 385.739 143.171"/>
            <path class="cls-22" d="M389.5989,79.2489a60.49754,60.49754,0,0,0-55.03-1.561l28.125,35.992Z" transform="translate(0 -0.00021)"/>
            <path class="cls-23" d="M389.5989,79.2489a60.49754,60.49754,0,0,0-55.03-1.561l28.125,35.992Z" transform="translate(0 -0.00021)"/>
            <polygon class="cls-22" points="338.694 144.392 310.173 180.892 333.217 210.383 361.739 173.883 338.694 144.392"/>
            <polygon class="cls-23" points="338.694 144.392 310.173 180.892 333.217 210.383 361.739 173.883 338.694 144.392"/>
            <path class="cls-22" d="M333.2171,210.3832l-23.242,29.743c10.098,11.665,22.671,19.883,36.589,23.216l14.019-17.939Z" transform="translate(0 -0.00021)"/>
            <path class="cls-23" d="M333.2171,210.3832l-23.242,29.743c10.098,11.665,22.671,19.883,36.589,23.216l14.019-17.939Z" transform="translate(0 -0.00021)"/>
            <path class="cls-22" d="M360.5828,245.4032l14.001,17.918c14.468-3.486,27.477-12.252,37.759-24.679l-23.239-29.739Z" transform="translate(0 -0.00021)"/>
            <path class="cls-23" d="M360.5828,245.4032l14.001,17.918c14.468-3.486,27.477-12.252,37.759-24.679l-23.239-29.739Z" transform="translate(0 -0.00021)"/>
            <path class="cls-22" d="M362.6941,113.6796l-28.125-35.992c-11.092,5.2-20.963,13.64-28.918,24.419l33.043,42.286Z" transform="translate(0 -0.00021)"/>
            <path class="cls-23" d="M362.6941,113.6796l-28.125-35.992c-11.092,5.2-20.963,13.64-28.918,24.419l33.043,42.286Z" transform="translate(0 -0.00021)"/>
            <path class="cls-22" d="M413.10429,178.1908l-24,30.712,23.239,29.739a102.09544,102.09544,0,0,0,19.081-37.007Z" transform="translate(0 -0.00021)"/>
            <path class="cls-23" d="M413.10429,178.1908l-24,30.712,23.239,29.739a102.09544,102.09544,0,0,0,19.081-37.007Z" transform="translate(0 -0.00021)"/>
            <path class="cls-22" d="M346.5643,263.3426a59.689,59.689,0,0,0,28.02-.021l-14.001-17.918Z" transform="translate(0 -0.00021)"/>
            <path class="cls-23" d="M346.5643,263.3426a59.689,59.689,0,0,0,28.02-.021l-14.001-17.918Z" transform="translate(0 -0.00021)"/>
            <path class="cls-22" d="M338.6941,144.3924l-33.043-42.286c-9.71,13.158-16.561,29.807-19.285,48.321l23.807,30.465Z" transform="translate(0 -0.00021)"/>
            <path class="cls-23" d="M338.6941,144.3924l-33.043-42.286c-9.71,13.158-16.561,29.807-19.285,48.321l23.807,30.465Z" transform="translate(0 -0.00021)"/>
            <path class="cls-22" d="M286.366,150.4271a123.59178,123.59178,0,0,0-1.311,17.984,120.00522,120.00522,0,0,0,5.804,37.198l19.314-24.717Z" transform="translate(0 -0.00021)"/>
            <path class="cls-23" d="M286.366,150.4271a123.59178,123.59178,0,0,0-1.311,17.984,120.00522,120.00522,0,0,0,5.804,37.198l19.314-24.717Z" transform="translate(0 -0.00021)"/>
            <path class="cls-22" d="M310.1727,180.8924l-19.314,24.716a100.20264,100.20264,0,0,0,19.117,34.518l23.241-29.743Z" transform="translate(0 -0.00021)"/>
            <path class="cls-23" d="M310.1727,180.8924l-19.314,24.716a100.20264,100.20264,0,0,0,19.117,34.518l23.241-29.743Z" transform="translate(0 -0.00021)"/>
            <polygon class="cls-24" points="307.463 100.323 415.49 100.323 448.676 41.447 307.463 100.323"/>
            <polyline class="cls-9" points="274 41.447 415.213 100.323 307.186 100.323"/>
            <polyline class="cls-25" points="361.338 77.861 325.089 62.747 361.338 0 392.097 65.036"/>
            <path class="cls-4" d="M315.909,115.2704a27.44474,27.44474,0,1,0,38.902,27.169Z" transform="translate(0 -0.00021)"/>
            <path class="cls-26" d="M315.909,115.2704a27.44474,27.44474,0,1,0,38.902,27.169Z" transform="translate(0 -0.00021)"/>
            <path d="M348.0506,149.0521c0,8.792-4.57,15.919-10.208,15.919-5.637,0-10.207-7.127-10.207-15.919s4.57-15.919,10.207-15.919c5.638,0,10.208,7.127,10.208,15.919" transform="translate(0 -0.00021)"/>
            <path class="cls-4" d="M408.5921,115.2704a27.44456,27.44456,0,1,1-38.901,27.169Z" transform="translate(0 -0.00021)"/>
            <path class="cls-26" d="M408.5921,115.2704a27.44456,27.44456,0,1,1-38.901,27.169Z" transform="translate(0 -0.00021)"/>
            <path d="M401.7859,144.8299c0,8.792,4.57,15.919,10.207,15.919s10.207-7.127,10.207-15.919-4.57-15.919-10.207-15.919-10.207,7.127-10.207,15.919" transform="translate(0 -0.00021)"/>
          </g>
        </g>
      </g>
    </g>
  </g>
</svg>
