<svg xmlns="http://www.w3.org/2000/svg" viewBox="0 0 566.94 688.26"><defs><style>.cls-1{fill:none;stroke:#ffeed3;stroke-miterlimit:10;stroke-width:3px;}</style></defs><g id="Layer_2" data-name="Layer 2"><g id="Layer_1-2" data-name="Layer 1"><path class="cls-1" d="M148.16,442.59c-18.63,11.75-29.43,11.27-35.92,8.39-6-2.65-6.45-6.79-17.85-16.08-11-9-14.45-9.15-21.6-15-12.4-10.22-17.82-22.7-22.27-33-7.83-18-8.75-33.35-9.29-43.87C40.06,320.13,39.28,304.77,50,293c10.22-11.25,25.35-13.19,29.14-13.68a53.24,53.24,0,0,1,25.57,3.08c25.85,10.17,33,39.39,33.71,42.52"/><path class="cls-1" d="M76.1,298.41c14.43,1.1,27,11.21,34.63,23.48s11.3,26.57,14.7,40.64,6.78,28.4,14.07,40.9c-4.7,2.51-10.46-.39-14.45-3.91s-7.7-7.94-12.9-9c-3.24-.7-6.61,0-9.9-.34a30.33,30.33,0,0,1-8.86-2.91c-7.32-3.3-14.9-6.91-19.84-13.24A25.49,25.49,0,0,1,84.73,334.4"/><path class="cls-1" d="M72.15,322.73c-4.32,1.49-7.5,5.2-9.91,9.09a50.42,50.42,0,0,0-6,38.28c2,8.09,6.28,15.88,13.11,20.65"/><path class="cls-1" d="M100.63,335.06c5.06-4.26,12.38-3.91,18.78-5.57a58.22,58.22,0,0,0,9.59-3.73c4.69-2.15,9.46-4.36,13.28-7.82s6.61-8.47,6.16-13.61"/><path class="cls-1" d="M182.9,373.13a76.85,76.85,0,0,1-10.87-26c-2.18-10.19-2.26-20.71-2.33-31.13-.18-25.08-.16-51.11,10.34-73.88,5.47-11.87,13.56-22.31,21.58-32.62l15.7-20.22c6-7.74,12.07-15.52,19.32-22.13,7.69-7,16.59-12.59,25.43-18.11l42.41-26.49c14-8.76,29.34-17.86,45.83-16.58,11.3.87,21.59,6.56,31.46,12.13l45.32,25.52"/><path class="cls-1" d="M40.79,280.34c-2.55-18.48,1.73-38.32,13.83-52.52,6.28-7.36,14.33-12.95,22.29-18.45l32.9-22.72,32.54-22.49c32-22.13,64.25-44.37,99.47-61,7.51-3.53,15.18-6.82,23.23-8.82a142.64,142.64,0,0,1,18.05-2.95c25.68-3,51.84-5,77.24-.15s50.25,17.13,65.51,38"/><path class="cls-1" d="M433.75,133.22l1.37-6.58c-6.58-4.06-11.72-10-17.33-15.37-23.22-22.13-55.42-33.66-87.48-34.73s-63.95,7.76-92.65,22.1c-37.71,18.83-70.17,46.82-107.44,66.5-26.84,14.17-41.52,17-64,34.56-29.55,23.14-40.62,44.76-43.61,50.94a129.25,129.25,0,0,0-12.38,46.45"/><path class="cls-1" d="M438.52,143.15a89,89,0,0,0-31.31-43.43c-12.42-9.23-27.12-15-42.18-18.6a160.75,160.75,0,0,0-50.43-3.69c-5.8.49-11.56,1.3-17.33,2.11l-30.62,4.3c-20,2.8-40.28,5.7-58.55,14.23-14.29,6.67-26.8,16.53-40.1,25-45.09,28.69-100,41.76-139.82,77.42-6.52,5.85-12.6,12.29-17.19,19.75A65.07,65.07,0,0,0,3.67,270.7"/><path class="cls-1" d="M442.59,142.73c6-13,2.76-28.89-5.33-40.68S416.88,82,404.19,75.36A114.57,114.57,0,0,0,378.05,65.1c-10.13-2.41-20.62-2.84-31-2.76-62.11.47-122.86,18.49-180.5,41.64-13,5.22-25.85,10.7-38.72,16.18L86.35,137.81A118.25,118.25,0,0,0,71,145.24a58.79,58.79,0,0,0-26.18,36.15"/><path class="cls-1" d="M404.19,63.81C389,54.5,370.83,51.1,353,51.17s-35.38,3.42-52.85,6.77l-83,15.86L180,80.92c-14.63,2.8-29.3,5.6-43.51,10A197.35,197.35,0,0,0,30.31,172"/><path class="cls-1" d="M436.77,81.2C422,67.31,406.49,53.09,387.14,47.11c-16.42-5.07-34-3.7-51.17-2.28L199.26,56.15c-12.6,1.05-25.26,2.1-37.54,5.11-15,3.67-29.12,10.2-42.54,17.8a287.6,287.6,0,0,0-88.21,78"/><path class="cls-1" d="M450.8,146.78c5.25,0,10-3.61,12.71-8.11s3.76-9.79,4.54-15c2.09-14.08,2.43-29.15-4.14-41.77-3.57-6.87-9-12.58-14.55-18-10.79-10.44-23.79-20.56-38.8-20.48"/><path class="cls-1" d="M461.84,149.31c7.68-3.32,13.58-10.1,16.83-17.82s4-16.3,3.34-24.64A74.84,74.84,0,0,0,458.7,58.77"/><path class="cls-1" d="M464.83,157.55c5.69,2.15,9.61,7.31,13.2,12.23l12.68,17.36c2.76,3.78,5.67,8.05,5.13,12.71"/><path class="cls-1" d="M475.62,153.53c6.32-1.9,12.54,2.81,17.47,7.2,5.79,5.16,11.87,10.78,13.75,18.3"/><path class="cls-1" d="M481.79,141.41a57.08,57.08,0,0,1,35.07,18.67"/><path class="cls-1" d="M485.42,134.56c4.27-.84,7.19-5.07,7.88-9.36s-.36-8.64-1.41-12.86"/><path class="cls-1" d="M407.92,147.7a123.93,123.93,0,0,1-69.44-3.38c-6.56-2.29-13.13-5.17-20.08-5.23-10.79-.09-20.34,6.53-29.07,12.87a16.27,16.27,0,0,0-3.45,3.51,36.25,36.25,0,0,0-4.65,7.43c-4.71,10.52,12.84,81.51,13.79,90.67a9,9,0,0,1-1.23,6.08,9.28,9.28,0,0,1-4.91,3.12c-17.68,5.87-40.61-2.16-53.44,11.33-5.47,5.75-7.3,14-11.32,20.83-4.8,8.16-12.56,14.12-18.27,21.68-17.1,22.64-12.77,54.58-4.92,81.84,3,10.33,6.39,20.65,12.06,29.77,8.74,14,22.23,24.34,35.42,34.32L287,491.74c20.93,15.83,30.68,24.66,39.57,36.48,25.14,33.43,17.43,66,27.84,67.58,12.45,1.83,19.63-45.45,62.45-88.1a197,197,0,0,1,32.18-25.89"/><path class="cls-1" d="M455.17,486a79.6,79.6,0,0,0,24.26,1.55c9.35-.88,13-3,18.06-.51,6.6,3.29,8.86,11.3,10.32,16.51,1.15,4.09,3.4,12.06-.21,15.2-2.2,1.93-5,.69-11.66.29-6.26-.39-7.39.5-18,1.42-14.17,1.24-18-.26-23.64.83-16.1,3.08-29.51,14.75-38.41,28.52s-13.9,29.62-18.81,45.26c-1.34,4.26-2.69,8.77-1.69,13.12,1.54,6.75,8.1,11,14.09,14.43,9.47,5.49,19.67,11.16,30.59,10.48,10.27-.64,22.57-8.54,25.48-19.26,3.77-13.87-10.32-26.57-5.4-31.83,2.27-2.42,5.57.4,14.88-.76,11.25-1.4,16.3-6.68,18.53-4.52,2,2-1.82,6.67-3.26,17.14-.6,4.3-.38,6.6,0,15,.7,15.95,1.06,23.93.78,25.92-2.36,17-18.33,28.81-30.68,36.77-7.75,5-15.64,10-24.45,12.75C410.58,692.11,384.05,679.7,359,671,313.84,655.16,264.1,650.39,223.52,625a152.35,152.35,0,0,1-36-31.32c-3.53-4.22-6.88-8.71-8.8-13.87-2.3-6.18-2.41-12.93-2.5-19.52-.35-27.18,1.66-97.23-1.72-131.73a288.43,288.43,0,0,0-11.09-55.45"/><path class="cls-1" d="M365.86,34.18c-44.24-16.55-93.08-13.63-140.17-10C195.77,26.49,165.59,29.05,137,38S81,63.09,63.83,87.67"/><path class="cls-1" d="M455.11,113.66c-7.79-25.9-26-47.27-44.89-66.63C394,30.4,376,14.12,353.75,7.38c-9.71-2.94-19.88-3.94-30-4.61-24.72-1.63-49.53-1.33-74.3-1"/><path class="cls-1" d="M302.11,12.15c-20.39-.16-40.93-.33-60.92-4.37-8.49-1.72-16.93-4.14-25.59-4.15-7.15,0-14.19,1.63-21.14,3.31C146.35,18.63,96.38,34.79,63.4,71.72"/><path class="cls-1" d="M331.39,37.94c-28.16-4.77-56.63,3.79-85,6.67-38.91,4-79.37-2.65-116.54,9.53C87.35,68.05,56.22,104.2,31.28,141.27a177.7,177.7,0,0,0-10.64,17.39,103.59,103.59,0,0,0-10.41,32"/><path class="cls-1" d="M286.66,114.34c-44.35,2.58-83.7,27.95-120.73,52.51C128.14,191.92,90.34,217,53.53,243.47"/><path class="cls-1" d="M31.4,256.72a231.06,231.06,0,0,0-8.23,77.53c.95,14.39,2.47,34.65,12.9,57.81,4.6,10.21,11.6,19,22.1,33.63s18,23.18,20.22,25.72A285.61,285.61,0,0,0,99,472.57"/><path class="cls-1" d="M147.56,320.83c18-.26,33.32.33,44.9,1,45,2.75,77.2,9.91,83.28,11.29,4.3,1,11,2.58,17.28,4.13,15.83,3.91,28.79,7.46,37.73,10"/><path class="cls-1" d="M157.88,300.19a684.61,684.61,0,0,1,88.81,11.64c9.57,1.93,21.25,4.53,40,7.86,23,4.09,42.05,6.69,54.91,8.28"/><path class="cls-1" d="M426.59,441.91c-2.34,4.2-4.7,8.47-5.75,13.16s-.6,9.94,2.29,13.78c1.93,2.56,4.75,4.27,7.53,5.88s5.58,3.17,8.41,4.7"/><path class="cls-1" d="M449.35,472c.78-2.37,3.19-3.74,5.41-4.88,3.63-1.86,7.31-3.73,11.31-4.54s8.39-.45,11.74,1.87"/><path class="cls-1" d="M428.33,559.52l16.94.69a38.08,38.08,0,0,1,8.86,1.06c2,.56,3.83,1.44,5.78,2a35.27,35.27,0,0,0,6.93,1.2,104.14,104.14,0,0,0,19.18,0,15.14,15.14,0,0,0,6-1.47,9.72,9.72,0,0,0,4.63-8.48,14.57,14.57,0,0,0-3.73-9.2"/><path class="cls-1" d="M476.49,375.77c6.33,18.7,17.91,35.09,29.35,51.17,4.76,6.69,9.75,14.14,9.07,22.33-.55,6.54-4.76,12.31-9.91,16.37-4.28,3.38-10,7.41-8.65,12.69"/><path class="cls-1" d="M345.26,351.81l2.49,59.35a13.32,13.32,0,0,0,.65,4.27,11.15,11.15,0,0,0,4,4.64c8.39,6.26,19.16,8.18,29.53,9.57,5.17.69,10.43,1.29,15.57.43s9.78-3.06,14.43-5.25c6.51-3.07,13.25-6.32,17.83-11.89a48.92,48.92,0,0,0,4.66-7.28c6.27-11.22,12.71-23,13.22-35.81"/><path class="cls-1" d="M332.59,350.3c3.73,17.44,1.3,35.64,3.76,53.3.64,4.64,1.81,9.56,5.29,12.7"/><path class="cls-1" d="M347.34,325.15a150.65,150.65,0,0,1,45.92-2.57"/><path class="cls-1" d="M353.63,340.22c9.09-7.18,20.65-10.67,32.18-11.77s23.14,0,34.66,1.25a59.9,59.9,0,0,1,10.22,2.09,79,79,0,0,1,14.67,6.07c3,1.49,13.86,6.81,21.68,8.26,11,2,13.56-4,37.16-11.35a117.51,117.51,0,0,1,35.61-5.68c14,0,18.48,2.79,21,5.64,4.1,4.61,4.8,11,4.58,15.88A107.75,107.75,0,0,1,562.72,368c-2.92,13.84-6,28-13.76,39.86-2.73,4.16-13,15.27-35.45,19"/><path class="cls-1" d="M444.48,408.17c7.36-10.57,7.43-25.07,15.27-35.28a9,9,0,0,1,2.38-2.31c2-1.21,4.59-.9,6.93-.56"/><path class="cls-1" d="M355.84,362.36a41.6,41.6,0,0,0,27.88,11.9,14.59,14.59,0,0,0,7.17-1.26c2-1.07,3.54-2.87,5.39-4.2,2.86-2,6.51-3,8.85-5.61,2-2.27,3.61-6,6.63-5.6"/><path class="cls-1" d="M357.78,350.13c6.34-3.07,13.35-4.45,20.31-5.55,5.9-.94,12-1.71,17.82-.51,7.52,1.55,14,6.19,20.18,10.72"/><path class="cls-1" d="M375.65,366.58c-2,1-4.56-.48-5.51-2.51s-.76-4.41-.55-6.65a14.44,14.44,0,0,1,3.55-7.65"/><path class="cls-1" d="M382.59,367.65a15.61,15.61,0,0,0,6.83-19.38"/><path class="cls-1" d="M485.2,368.45A17.94,17.94,0,0,0,505.26,359"/><path class="cls-1" d="M484,361.58a21.75,21.75,0,0,1,17.61-16.31"/><path class="cls-1" d="M519.17,306.58c-5.82-37.23-11.86-75.2-29.13-108.69"/><path class="cls-1" d="M312.66,312.54l38-9.64c11.39-2.89,23.13-5.8,34.76-4.16,7.2,1,14,3.73,20.77,6.43l21.09,8.42c8.67,3.46,18.24,7,27.11,4a15,15,0,0,1-9.3,12.72"/><path class="cls-1" d="M473.59,335.76c2.25-6.58,8.32-11,14.06-14.88,4.7-3.2,9.48-6.41,14.86-8.25s11.51-2.15,16.6.38c4.94,2.45,8.65,7.41,14.06,8.52"/><path class="cls-1" d="M476.85,336.84a57.19,57.19,0,0,1,17.25-9c8.42-2.66,17.32-3.33,26.13-4"/><path class="cls-1" d="M113.44,526.27l-5.58-35.42a91.23,91.23,0,0,0-2.19-11c-2.39-8.37-7.2-16.87-4.75-25.22"/><path class="cls-1" d="M159.65,338.4c-4.48,6.07-11.71,9.64-19.09,11.17s-15,1.26-22.55,1"/><path class="cls-1" d="M161,349.78c-3.77,4.39-7.76,9-13.16,11-3.72,1.43-7.8,1.57-11.78,1.48a116.78,116.78,0,0,1-13.73-1.14c-3.72-.54-7.85-1.17-10.93,1"/><path class="cls-1" d="M167.71,366.46a66.74,66.74,0,0,1-16.59.18"/><path class="cls-1" d="M497.62,525.35c1.23,4.38,2.19,9.93-.39,12-1.94,1.54-5.09.48-6.2.15-8.27-2.51-18.08.07-37.12,5.09a146.24,146.24,0,0,0-34.28,13.93"/><path class="cls-1" d="M507.25,418.06c3.5-12.46,2.82-25.67,1.79-38.57a57.22,57.22,0,0,1-.18-11.7,28.16,28.16,0,0,1,9.25-17.51,13.62,13.62,0,0,0,2.76-3.37,14.75,14.75,0,0,0,1.91-6.21"/></g></g></svg>
